<?xml version="1.0" encoding="UTF-8"?>
<svg width="23px" height="21px" viewBox="0 0 23 21" version="1.1" xmlns="http://www.w3.org/2000/svg" xmlns:xlink="http://www.w3.org/1999/xlink">
    <!-- Generator: Sketch 50 (54983) - http://www.bohemiancoding.com/sketch -->
    <title>download</title>
    <desc>Created with Sketch.</desc>
    <defs></defs>
    <g id="Page-1" stroke="none" stroke-width="1" fill="none" fill-rule="evenodd">
        <g id="Downloads" transform="translate(-559.000000, -1188.000000)" fill="#FFFFFF">
            <g id="Group-13-Copy" transform="translate(549.000000, 1178.000000)">
                <g id="Group-7">
                    <path d="M27.5000204,28.4285684 C27.5000204,27.9598178 27.1116271,27.5714245 26.6428766,27.5714245 C26.174126,27.5714245 25.7857327,27.9598178 25.7857327,28.4285684 C25.7857327,28.8973189 26.174126,29.2857122 26.6428766,29.2857122 C27.1116271,29.2857122 27.5000204,28.8973189 27.5000204,28.4285684 Z M30.928596,28.4285684 C30.928596,27.9598178 30.5402026,27.5714245 30.0714521,27.5714245 C29.6027015,27.5714245 29.2143082,27.9598178 29.2143082,28.4285684 C29.2143082,28.8973189 29.6027015,29.2857122 30.0714521,29.2857122 C30.5402026,29.2857122 30.928596,28.8973189 30.928596,28.4285684 Z M32.6428837,25.4285648 L32.6428837,29.7142842 C32.6428837,30.4241065 32.0669902,31 31.3571679,31 L11.6428587,31 C10.9330364,31 10.3571429,30.4241065 10.3571429,29.7142842 L10.3571429,25.4285648 C10.3571429,24.7187425 10.9330364,24.142849 11.6428587,24.142849 L17.8705447,24.142849 L19.6785825,25.9642797 C20.1741188,26.4464231 20.8169768,26.7142806 21.5000133,26.7142806 C22.1830498,26.7142806 22.8259077,26.4464231 23.321444,25.9642797 L25.1428748,24.142849 L31.3571679,24.142849 C32.0669902,24.142849 32.6428837,24.7187425 32.6428837,25.4285648 Z M28.2901999,17.80802 C28.4241287,18.1294489 28.3571643,18.5044494 28.1026997,18.7455211 L22.1026926,24.7455283 C21.9419781,24.9196356 21.7142993,24.9999928 21.5000133,24.9999928 C21.2857273,24.9999928 21.0580485,24.9196356 20.897334,24.7455283 L14.8973268,18.7455211 C14.6428623,18.5044494 14.5758979,18.1294489 14.7098266,17.80802 C14.8437553,17.4999839 15.1517914,17.2856979 15.5000061,17.2856979 L18.9285816,17.2856979 L18.9285816,11.2856908 C18.9285816,10.8169402 19.316975,10.4285469 19.7857255,10.4285469 L23.214301,10.4285469 C23.6830516,10.4285469 24.0714449,10.8169402 24.0714449,11.2856908 L24.0714449,17.2856979 L27.5000204,17.2856979 C27.8482351,17.2856979 28.1562712,17.4999839 28.2901999,17.80802 Z" id="download"></path>
                </g>
            </g>
        </g>
    </g>
</svg>