<?xml version="1.0" encoding="UTF-8"?>
<svg width="48px" height="48px" viewBox="0 0 48 48" version="1.1" xmlns="http://www.w3.org/2000/svg" xmlns:xlink="http://www.w3.org/1999/xlink">
    <!-- Generator: Sketch 49.3 (51167) - http://www.bohemiancoding.com/sketch -->
    <title>best seller</title>
    <desc>Created with Sketch.</desc>
    <defs></defs>
    <g id="Page-1" stroke="none" stroke-width="1" fill="none" fill-rule="evenodd">
        <g id="Products" transform="translate(-434.000000, -456.000000)">
            <g id="Group-7-Copy" transform="translate(434.000000, 394.000000)">
                <g id="best-seller" transform="translate(0.000000, 62.000000)">
                    <path d="M42.9977891,23.9932448 L47.3097872,28.2126912 C47.9034681,28.775284 48.1221927,29.6191733 47.9347145,30.4005523 C47.71599,31.1819312 47.0910627,31.8070344 46.3099036,31.9945654 L40.4355872,33.494813 L42.0916445,39.3082724 C42.3103691,40.0896514 42.0916445,40.9335406 41.4979636,41.4961335 C40.9355291,42.0899815 40.0918772,42.3087676 39.3107182,42.0899815 L33.4988945,40.4334581 L31.9990691,46.3094279 C31.8115909,47.0908068 31.1866636,47.71591 30.4055045,47.9346961 C30.2180264,47.9659513 29.9993018,47.9972064 29.8118236,47.9972064 C29.2181427,47.9972064 28.6244618,47.7471652 28.2182591,47.309593 L24,42.9963811 L19.7817409,47.309593 C19.2193064,47.903441 18.3756546,48.1222271 17.5944955,47.9346961 C16.78209,47.71591 16.1884091,47.0908068 16.0009309,46.3094279 L14.5011055,40.4334581 L8.68928185,42.0899815 C7.90812276,42.3087676 7.06447094,42.0899815 6.5020364,41.4961335 C5.90835549,40.9335406 5.68963094,40.0896514 5.90835549,39.3082724 L7.56441276,33.494813 L1.69009641,31.9945654 C0.908937317,31.8070344 0.284010045,31.1819312 0.0652855004,30.4005523 C-0.122192681,29.6191733 0.096531864,28.775284 0.690212772,28.2126912 L5.00221095,23.9932448 L0.690212772,19.7737984 C0.096531864,19.2112056 -0.122192681,18.3673163 0.0652855004,17.5859373 C0.284010045,16.8045584 0.908937317,16.1794552 1.69009641,15.9919243 L7.56441276,14.4916767 L5.90835549,8.6782172 C5.68963094,7.89683825 5.90835549,7.05294897 6.5020364,6.49035612 C7.06447094,5.89650811 7.90812276,5.677722 8.68928185,5.89650811 L14.5011055,7.5530315 L16.0009309,1.67706173 C16.1884091,0.89568277 16.8133364,0.270579602 17.5944955,0.0830486519 C18.3756546,-0.135737457 19.2193064,0.0830486519 19.7817409,0.676896661 L24,5.02136368 L28.2182591,0.676896661 C28.7806936,0.0830486519 29.5930991,-0.135737457 30.4055045,0.0830486519 C31.1866636,0.270579602 31.8115909,0.89568277 31.9990691,1.67706173 L33.4988945,7.5530315 L39.3107182,5.89650811 C40.0918772,5.677722 40.9355291,5.89650811 41.4979636,6.49035612 C42.0916445,7.05294897 42.3103691,7.89683825 42.0916445,8.6782172 L40.4355872,14.4916767 L46.3099036,15.9919243 C47.0910627,16.1794552 47.71599,16.8045584 47.9347145,17.5859373 C48.1221927,18.3673163 47.9034681,19.2112056 47.3097872,19.7737984 L42.9977891,23.9932448 Z" id="certificate---FontAwesome" fill="#F79D19"></path>
                    <path d="M13.9286358,15.5643029 L15.9794171,15.5643029 C16.9139169,15.5643029 17.5922455,15.6972643 18.0144231,15.9631911 C18.4366007,16.2291179 18.6476863,16.6520404 18.6476863,17.2319712 C18.6476863,17.6256029 18.5552894,17.9486165 18.3704928,18.2010216 C18.1856962,18.4534267 17.9400556,18.605168 17.6335637,18.65625 L17.6335637,18.7013221 C18.0512341,18.7944716 18.352463,18.9687487 18.5372596,19.2241587 C18.7220562,19.4795686 18.8144531,19.8191085 18.8144531,20.2427885 C18.8144531,20.843753 18.5973579,21.3124983 18.1631611,21.6490385 C17.7289642,21.9855786 17.1392766,22.1538462 16.3940805,22.1538462 L13.9286358,22.1538462 L13.9286358,15.5643029 Z M15.3258714,18.1739784 L16.1371695,18.1739784 C16.5157771,18.1739784 16.7899631,18.1153852 16.9597356,17.9981971 C17.1295081,17.881009 17.214393,17.6872009 17.214393,17.4167668 C17.214393,17.1643617 17.1219961,16.9833239 16.9371995,16.8736478 C16.7524029,16.7639718 16.4601883,16.7091346 16.0605469,16.7091346 L15.3258714,16.7091346 L15.3258714,18.1739784 Z M15.3258714,19.2827524 L15.3258714,21 L16.2363281,21 C16.6209454,21 16.9048969,20.9263829 17.0881911,20.7791466 C17.2714853,20.6319103 17.363131,20.406552 17.363131,20.1030649 C17.363131,19.5561872 16.9725099,19.2827524 16.191256,19.2827524 L15.3258714,19.2827524 Z M23.925631,22.1538462 L20.1305589,22.1538462 L20.1305589,15.5643029 L23.925631,15.5643029 L23.925631,16.7091346 L21.5277945,16.7091346 L21.5277945,18.1559495 L23.7588642,18.1559495 L23.7588642,19.3007812 L21.5277945,19.3007812 L21.5277945,21 L23.925631,21 L23.925631,22.1538462 Z M29.1900541,20.3239183 C29.1900541,20.9188732 28.9759637,21.3876185 28.5477764,21.7301683 C28.1195892,22.0727181 27.523892,22.2439904 26.7606671,22.2439904 C26.0575386,22.2439904 25.4355496,22.1117802 24.8946815,21.8473558 L24.8946815,20.5492788 C25.3393953,20.7475971 25.7157437,20.8873193 26.023738,20.9684495 C26.3317323,21.0495797 26.6134302,21.0901442 26.8688401,21.0901442 C27.1753321,21.0901442 27.4104559,21.0315511 27.5742188,20.914363 C27.7379816,20.7971749 27.8198618,20.6228978 27.8198618,20.3915264 C27.8198618,20.2623191 27.7838044,20.1473863 27.7116887,20.0467248 C27.639573,19.9460632 27.5336545,19.8491591 27.3939303,19.7560096 C27.254206,19.6628601 26.9695034,19.5141236 26.5398137,19.3097957 C26.1371675,19.1204918 25.8351873,18.9387028 25.6338642,18.7644231 C25.4325411,18.5901434 25.2717855,18.3873209 25.1515925,18.1559495 C25.0313996,17.9245782 24.9713041,17.6541482 24.9713041,17.3446514 C24.9713041,16.7617158 25.1688682,16.3034872 25.5640024,15.9699519 C25.9591366,15.6364166 26.5052549,15.4696514 27.2023738,15.4696514 C27.5449236,15.4696514 27.8716932,15.5102159 28.1826923,15.5913462 C28.4936915,15.6724764 28.8189586,15.7866579 29.1585036,15.9338942 L28.7077825,17.0201322 C28.3562182,16.8759007 28.065506,16.7752407 27.835637,16.718149 C27.6057681,16.6610574 27.3796586,16.632512 27.1573017,16.632512 C26.8928773,16.632512 26.6900548,16.69411 26.5488281,16.8173077 C26.4076015,16.9405054 26.3369892,17.101261 26.3369892,17.2995793 C26.3369892,17.4227771 26.3655346,17.5301979 26.4226262,17.621845 C26.4797178,17.713492 26.5706124,17.802133 26.6953125,17.8877704 C26.8200126,17.9734079 27.115232,18.1274027 27.5809796,18.3497596 C28.1969682,18.6442322 28.6191395,18.9394516 28.847506,19.2354267 C29.0758725,19.5314017 29.1900541,19.8942286 29.1900541,20.3239183 Z M32.9265325,22.1538462 L31.5292969,22.1538462 L31.5292969,16.7271635 L29.7399339,16.7271635 L29.7399339,15.5643029 L34.7158954,15.5643029 L34.7158954,16.7271635 L32.9265325,16.7271635 L32.9265325,22.1538462 Z M12.7454928,29.5546875 C12.7454928,30.1496424 12.5314024,30.6183877 12.1032151,30.9609375 C11.6750279,31.3034873 11.0793307,31.4747596 10.3161058,31.4747596 C9.61297725,31.4747596 8.99098828,31.3425494 8.45012019,31.078125 L8.45012019,29.7800481 C8.89483395,29.9783664 9.27118235,30.1180885 9.57917668,30.1992187 C9.88717101,30.280349 10.1688689,30.3209135 10.4242788,30.3209135 C10.7307708,30.3209135 10.9658946,30.2623203 11.1296575,30.1451322 C11.2934203,30.0279441 11.3753005,29.853667 11.3753005,29.6222957 C11.3753005,29.4930883 11.3392431,29.3781556 11.2671274,29.277494 C11.1950117,29.1768324 11.0890932,29.0799284 10.949369,28.9867788 C10.8096447,28.8936293 10.5249421,28.7448928 10.0952524,28.5405649 C9.69260616,28.3512611 9.39062601,28.169472 9.18930288,27.9951923 C8.98797976,27.8209126 8.82722416,27.6180901 8.70703125,27.3867187 C8.58683834,27.1553474 8.52674279,26.8849174 8.52674279,26.5754207 C8.52674279,25.9924851 8.72430692,25.5342565 9.11944111,25.2007212 C9.51457529,24.8671858 10.0606936,24.7004207 10.7578125,24.7004207 C11.1003623,24.7004207 11.4271319,24.7409852 11.738131,24.8221154 C12.0491302,24.9032456 12.3743973,25.0174271 12.7139423,25.1646635 L12.2632212,26.2509014 C11.9116569,26.10667 11.6209447,26.0060099 11.3910757,25.9489183 C11.1612068,25.8918266 10.9350973,25.8632812 10.7127404,25.8632812 C10.448316,25.8632812 10.2454935,25.9248792 10.1042668,26.0480769 C9.96304016,26.1712747 9.89242788,26.3320303 9.89242788,26.5303486 C9.89242788,26.6535463 9.92097327,26.7609671 9.9780649,26.8526142 C10.0351565,26.9442613 10.1260511,27.0329022 10.2507512,27.1185397 C10.3754513,27.2041771 10.6706707,27.358172 11.1364183,27.5805288 C11.7524069,27.8750015 12.1745782,28.1702209 12.4029447,28.4661959 C12.6313112,28.762171 12.7454928,29.1249979 12.7454928,29.5546875 Z M17.734976,31.3846154 L13.9399038,31.3846154 L13.9399038,24.7950721 L17.734976,24.7950721 L17.734976,25.9399038 L15.3371394,25.9399038 L15.3371394,27.3867188 L17.5682091,27.3867188 L17.5682091,28.5315505 L15.3371394,28.5315505 L15.3371394,30.2307692 L17.734976,30.2307692 L17.734976,31.3846154 Z M19.1096755,31.3846154 L19.1096755,24.7950721 L20.5069111,24.7950721 L20.5069111,30.2307692 L23.1796875,30.2307692 L23.1796875,31.3846154 L19.1096755,31.3846154 Z M24.3245192,31.3846154 L24.3245192,24.7950721 L25.7217548,24.7950721 L25.7217548,30.2307692 L28.3945313,30.2307692 L28.3945313,31.3846154 L24.3245192,31.3846154 Z M33.3344351,31.3846154 L29.539363,31.3846154 L29.539363,24.7950721 L33.3344351,24.7950721 L33.3344351,25.9399038 L30.9365986,25.9399038 L30.9365986,27.3867188 L33.1676683,27.3867188 L33.1676683,28.5315505 L30.9365986,28.5315505 L30.9365986,30.2307692 L33.3344351,30.2307692 L33.3344351,31.3846154 Z M36.1063702,27.7202524 L36.5570913,27.7202524 C36.9988003,27.7202524 37.3248187,27.6466354 37.5351562,27.499399 C37.7454938,27.3521627 37.8506611,27.1207948 37.8506611,26.8052885 C37.8506611,26.4927869 37.7432403,26.2704334 37.5283954,26.1382212 C37.3135506,26.006009 36.9807715,25.9399038 36.5300481,25.9399038 L36.1063702,25.9399038 L36.1063702,27.7202524 Z M36.1063702,28.8560697 L36.1063702,31.3846154 L34.7091346,31.3846154 L34.7091346,24.7950721 L36.6292067,24.7950721 C37.5246439,24.7950721 38.1871974,24.9580813 38.616887,25.2841046 C39.0465767,25.6101278 39.2614183,26.1051649 39.2614183,26.7692308 C39.2614183,27.1568529 39.1547487,27.5016511 38.9414062,27.8036358 C38.7280638,28.1056205 38.4260837,28.3422467 38.0354567,28.5135216 C39.0270482,29.9948992 39.6730754,30.9519209 39.9735577,31.3846154 L38.4230769,31.3846154 L36.8500601,28.8560697 L36.1063702,28.8560697 Z" fill="#FFFFFF"></path>
                </g>
            </g>
        </g>
    </g>
</svg>