<svg xmlns="http://www.w3.org/2000/svg" xmlns:xlink="http://www.w3.org/1999/xlink" viewBox="0 0 39.146 80">
    <defs>
        <style>
            .cls-1 {
            fill: none;
            }

            .cls-2 {
            fill: #fff;
            }

            .cls-3 {
            clip-path: url(#clip-path);
            }
        </style>
        <clipPath id="clip-path">
            <path id="Path_10" data-name="Path 10" class="cls-1" d="M0,59.23H39.146v-80H0Z" transform="translate(0 20.769)"/>
        </clipPath>
    </defs>
    <g id="bootwood_logo" transform="translate(0 20.77)">
        <g id="Group_12" data-name="Group 12" transform="translate(0 -20.769)">
            <path id="Path_3" data-name="Path 3" class="cls-2" d="M0,0V23.945H5.334V18.493l2.148-1.939L16.1,28.225h6.542l-11.2-15.184,8.9-8.058H13.274l-7.94,7.142V0Z"/>
        </g>
        <g id="Group_19" data-name="Group 19" class="cls-3" transform="translate(0 -20.768)">
            <g id="Group_13" data-name="Group 13" transform="translate(20.418 4.92)">
                <path id="Path_4" data-name="Path 4" class="cls-2" d="M13.866,6.956c0-6.382-3.42-9.395-9.033-9.395-6.59,0-9.7,3.74-9.7,10.153,0,7.033,3.393,10.716,10.974,10.716a18.964,18.964,0,0,0,7.137-1.31l-.582-4.137a17.5,17.5,0,0,1-5.909.959c-3.748,0-5.531-1.229-5.828-4.588H13.719a17.121,17.121,0,0,0,.146-2.4M.823,5.95c.254-2.943,1.313-4.114,4.044-4.114,2.33,0,3.79,1.136,3.863,4.114Z" transform="translate(4.862 2.439)"/>
            </g>
            <g id="Group_14" data-name="Group 14" transform="translate(0 53.325)">
                <path id="Path_5" data-name="Path 5" class="cls-2" d="M7.483,0H-2.624V20.488h5.2V4.607A20.24,20.24,0,0,1,7.3,4.6c1.183.243,1.957,1.317,1.957,3.675V20.488h5.192V7.7c0-5.52-2.7-7.7-6.964-7.7" transform="translate(2.624)"/>
            </g>
            <g id="Group_15" data-name="Group 15" transform="translate(20.527 29.938)">
                <path id="Path_6" data-name="Path 6" class="cls-2" d="M6.907,0C.478,0-2.422,3.147-2.422,10.531s2.9,10.45,9.329,10.45c6.463,0,9.252-3.078,9.252-10.45S13.371,0,6.907,0m0,16.779c-2.862,0-3.944-1.306-3.944-6.248S4.007,4.283,6.907,4.283c2.823,0,3.871,1.294,3.871,6.248,0,4.911-1.048,6.248-3.871,6.248" transform="translate(2.422 0)"/>
            </g>
            <g id="Group_16" data-name="Group 16" transform="translate(0 25.782)">
                <path id="Path_7" data-name="Path 7" class="cls-2" d="M7.478,3.134a18.779,18.779,0,0,0-4.9.747V-1.1l-5.2,0V24.034s6.344,0,9.911,0c5.146,0,7.919-3.055,7.919-10.373,0-7.365-3.085-10.531-7.731-10.531M7.439,19.639a16.336,16.336,0,0,1-4.861-.027V8.215a8.608,8.608,0,0,1,3.559-.543c2.958,0,3.725,1.676,3.725,6.255,0,4.541-1.221,5.473-2.423,5.712" transform="translate(2.622 1.099)"/>
            </g>
            <g id="Group_17" data-name="Group 17" transform="translate(19.505 55.077)">
                <path id="Path_8" data-name="Path 8" class="cls-2" d="M8.353,9.032h-.1L2.976-3.167h-5.9l8.651,18.8-.1.25a2.714,2.714,0,0,1-2.854,1.583A10.088,10.088,0,0,1,.33,16.878l-.4,4.237a8.963,8.963,0,0,0,3.471.639c3.551,0,5.974-1.695,7.473-5.843l4.892-14.19H10.5Z" transform="translate(2.929 3.167)"/>
            </g>
            <g id="Group_18" data-name="Group 18" transform="translate(34.264 53.397)">
                <path id="Path_9" data-name="Path 9" class="cls-2" d="M3,3.012a2.32,2.32,0,0,1-1.672.67A2.318,2.318,0,0,1-.364,3a2.272,2.272,0,0,1-.689-1.683A2.245,2.245,0,0,1-.31-.413a2.334,2.334,0,0,1,1.641-.643,2.309,2.309,0,0,1,1.687.693,2.275,2.275,0,0,1,.7,1.676A2.261,2.261,0,0,1,3,3.012M-.071-.062a1.914,1.914,0,0,0-.57,1.375,1.893,1.893,0,0,0,.582,1.4,1.89,1.89,0,0,0,1.391.574,1.894,1.894,0,0,0,1.391-.578A1.915,1.915,0,0,0,3.3,1.313,1.9,1.9,0,0,0,2.726-.062,1.9,1.9,0,0,0,1.331-.652a1.909,1.909,0,0,0-1.4.589M.287,2.63V0h.736L1.57.011a1.319,1.319,0,0,1,.52.135A.657.657,0,0,1,2.444.77a.567.567,0,0,1-.189.481.885.885,0,0,1-.458.177.865.865,0,0,1,.377.15.715.715,0,0,1,.231.589V2.4a.472.472,0,0,0,.008.073.309.309,0,0,0,.019.081l.023.073H1.794a2.173,2.173,0,0,1-.042-.362,1.318,1.318,0,0,0-.042-.324.324.324,0,0,0-.2-.193.888.888,0,0,0-.235-.042L1.127,1.7H.981V2.63ZM1.551.523a1.137,1.137,0,0,0-.4-.054H.981v.759h.27a.637.637,0,0,0,.377-.1A.359.359,0,0,0,1.763.82a.3.3,0,0,0-.212-.3" transform="translate(1.053 1.056)"/>
            </g>
        </g>
        <g id="Group_20" data-name="Group 20" transform="translate(18.591 32.522)">
            <path id="Path_11" data-name="Path 11" class="cls-2" d="M0,0,.916,1.954H6.957L6.116,0Z"/>
        </g>
    </g>
</svg>
