<svg xmlns="http://www.w3.org/2000/svg" width="16.998" height="12.824" viewBox="0 0 16.998 12.824">
  <g id="Images-Photography_Cameras_camera-1" data-name="Images-Photography / Cameras / camera-1" transform="translate(-184.574 -212.26)">
    <g id="Group_10" data-name="Group 10" transform="translate(185.074 212.76)">
      <g id="camera-1">
        <path id="Shape_31" data-name="Shape 31" d="M187.074,215.151l.019-.7a.707.707,0,0,1,.676-.7h.657a.742.742,0,0,1,.735.7v.7" transform="translate(-185.683 -213.064)" fill="none" stroke="#f7a600" stroke-linecap="round" stroke-linejoin="round" stroke-width="1"/>
        <path id="Shape_32" data-name="Shape 32" d="M198.728,214.847a.7.7,0,0,1-.63-.4c-.377-.808-.782-1.685-1.547-1.685h-3.478c-.648,0-.974.58-1.878,1.8a.7.7,0,0,1-.556.284h-4.173c-1.043,0-1.391.472-1.391,1.2v7.226c0,.725.348,1.314,1.43,1.314h13.138c1.082,0,1.43-.588,1.43-1.314v-7.226c0-.726-.348-1.2-1.43-1.2Z" transform="translate(-185.074 -212.76)" fill="none" stroke="#f7a600" stroke-linecap="round" stroke-linejoin="round" stroke-width="1"/>
        <path id="Oval_11" data-name="Oval 11" d="M197.4,224.411a3.826,3.826,0,1,0-3.826-3.826A3.825,3.825,0,0,0,197.4,224.411Z" transform="translate(-187.662 -213.978)" fill="none" stroke="#f7a600" stroke-linecap="round" stroke-linejoin="round" stroke-width="1"/>
        <path id="Oval_12" data-name="Oval 12" d="M198.161,223.433a2.087,2.087,0,1,0-2.087-2.087A2.087,2.087,0,0,0,198.161,223.433Z" transform="translate(-188.423 -214.739)" fill="none" stroke="#f7a600" stroke-linecap="round" stroke-linejoin="round" stroke-width="1"/>
        <path id="Oval_13" data-name="Oval 13" d="M188.117,219.847a1.043,1.043,0,1,0-1.043-1.043A1.043,1.043,0,0,0,188.117,219.847Z" transform="translate(-185.683 -214.282)" fill="none" stroke="#f7a600" stroke-linecap="round" stroke-linejoin="round" stroke-width="1"/>
      </g>
    </g>
  </g>
</svg>
